<svg height="30" viewBox="0 0 30 30" width="30" xmlns="http://www.w3.org/2000/svg"><rect fill="#ff4343" height="30" rx="5" width="30"/><g fill="#fff"><path d="m11.534 6.429h-4.64a1.583 1.583 0 0 1 -1.125-.471 1.615 1.615 0 0 1 -.469-1.137v-4.687a.135.135 0 0 0 -.036-.095.132.132 0 0 0 -.094-.039h-3.049a2.11 2.11 0 0 0 -1.5.628 2.154 2.154 0 0 0 -.621 1.515v10.714a2.154 2.154 0 0 0 .621 1.515 2.11 2.11 0 0 0 1.5.628h7.424a2.11 2.11 0 0 0 1.5-.628 2.154 2.154 0 0 0 .621-1.515v-6.294a.135.135 0 0 0 -.039-.095.132.132 0 0 0 -.093-.039z" transform="translate(9 8)"/><path d="m4.879 4.835-4.766-4.816a.066.066 0 0 0 -.1.01.067.067 0 0 0 -.013.038v4.346a.538.538 0 0 0 .155.379.528.528 0 0 0 .375.157h4.3a.066.066 0 0 0 .037-.011.067.067 0 0 0 .024-.03.067.067 0 0 0 -.014-.073z" transform="translate(15.363 8.409)"/></g></svg>