<svg height="15.429" viewBox="0 0 12 15.429" width="12" xmlns="http://www.w3.org/2000/svg"><g fill="#2697ff"><path d="m11.864 6.612h-4.773a1.628 1.628 0 0 1 -1.157-.484 1.662 1.662 0 0 1 -.479-1.169v-4.821a.138.138 0 0 0 -.04-.1.136.136 0 0 0 -.1-.04h-3.133a2.171 2.171 0 0 0 -1.543.648 2.216 2.216 0 0 0 -.639 1.554v11.02a2.216 2.216 0 0 0 .639 1.559 2.171 2.171 0 0 0 1.543.646h7.636a2.171 2.171 0 0 0 1.543-.646 2.216 2.216 0 0 0 .639-1.555v-6.474a.138.138 0 0 0 -.04-.1.136.136 0 0 0 -.096-.038z"/><path d="m5.019 4.973-4.903-4.953a.068.068 0 0 0 -.1.01.069.069 0 0 0 -.016.039v4.47a.554.554 0 0 0 .16.39.543.543 0 0 0 .386.161h4.425a.068.068 0 0 0 .038-.012.069.069 0 0 0 .025-.031.069.069 0 0 0 -.015-.075z" transform="translate(6.545 .42)"/></g></svg>