<svg height="14.88" viewBox="0 0 14.655 14.88" width="14.655" xmlns="http://www.w3.org/2000/svg"><g fill="#007ee5"><path d="m3.837 2.249a.346.346 0 0 1 -.178-.05l-3.659-2.199v3.914l4.87 2.928v-5.876l-.743 1.127a.347.347 0 0 1 -.29.156z" transform="translate(2.102 8.038)"/><path d="m6.654 1.092-1.754-1.092-4.9 2.943 1.758 1.093z" transform="translate(0 .061)"/><path d="m5.965 2.987-4.965-2.987-1 1.513 4.968 2.987z" transform="translate(.864 4.972)"/><path d="m4.89 0-4.89 2.94 4.89 2.94 4.89-2.94z" transform="translate(2.429 1.563)"/><path d="m3.114 1.115-3.114 1.872 1.007 1.513 4.968-2.986-1.007-1.514z" transform="translate(7.808 4.971)"/><path d="m0 1.147 4.9 2.947 1.779-1.147-4.901-2.947z" transform="translate(7.976)"/><path d="m1.045 2.242a.347.347 0 0 1 -.289-.155l-.756-1.136v5.883l4.87-2.927v-3.907l-3.647 2.192a.346.346 0 0 1 -.178.05z" transform="translate(7.666 8.046)"/></g></svg>