<svg height="30" viewBox="0 0 30 30" width="30" xmlns="http://www.w3.org/2000/svg"><rect fill="#19b7e9" height="30" rx="5" width="30"/><g fill="#fff"><path d="m7.247 4.7a.7.7 0 0 1 -.7-.7v-4h-5.847a.7.7 0 0 0 -.7.7v13.573a.7.7 0 0 0 .7.727h9.808a.7.7 0 0 0 .7-.7v-9.6zm1.053 7.865a.352.352 0 0 1 -.3.543h-1.019a.34.34 0 0 1 -.306-.185c-.577-1.056-1.067-2.008-1.067-2.008-.185.433-.294.577-1.067 2.013a.358.358 0 0 1 -.306.185h-1.021a.352.352 0 0 1 -.294-.542l1.76-2.729-1.76-2.734a.346.346 0 0 1 .294-.537h1.015a.363.363 0 0 1 .312.179c.762 1.425.577.987 1.067 2l1.067-2a.363.363 0 0 1 .312-.179h1.013a.346.346 0 0 1 .294.537l-1.728 2.729z" transform="translate(9 8)"/><path d="m3.738 3.583v.179h-3.738v-3.762h.179a.721.721 0 0 1 .5.2l2.881 2.887a.7.7 0 0 1 .179.5z" transform="translate(16.478 8)"/></g></svg>