<svg height="30" viewBox="0 0 30 30" width="30" xmlns="http://www.w3.org/2000/svg"><rect fill="#ff4387" height="30" rx="5" width="30"/><g fill="#fff"><path d="m2.282 4.563a2.282 2.282 0 1 1 0-4.563h4.545a2.282 2.282 0 0 1 0 4.563z" transform="translate(10.06 8)"/><path d="m2.281 4.564h2.319v-4.564h-2.319a2.282 2.282 0 0 0 0 4.564z" transform="translate(10 13.222)"/><path d="m2.282 0a2.282 2.282 0 1 0 2.281 2.282 2.282 2.282 0 0 0 -2.281-2.282z" transform="translate(14.826 13.269)"/><path d="m4.558 0h-2.363a2.28 2.28 0 1 0 2.362 2.4v-.028c0-.03 0-.06 0-.09s0-.06 0-.09z" transform="translate(10.041 18.437)"/></g></svg>