<svg enable-background="new 0 0 384.971 384.971" viewBox="0 0 384.971 384.971" xmlns="http://www.w3.org/2000/svg"><path d="m180.455 360.91h-156.394v-336.849h156.394c6.641 0 12.03-5.39 12.03-12.03s-5.39-12.03-12.03-12.03h-168.425c-6.64 0-12.03 5.389-12.03 12.03v360.909c0 6.641 5.39 12.03 12.03 12.03h168.424c6.641 0 12.03-5.39 12.03-12.03.001-6.641-5.389-12.03-12.029-12.03z"/><path d="m381.481 184.088-83.009-84.2c-4.704-4.752-12.319-4.74-17.011 0-4.704 4.74-4.704 12.439 0 17.179l62.558 63.46h-247.74c-6.641 0-12.03 5.438-12.03 12.151s5.39 12.151 12.03 12.151h247.74l-62.558 63.46c-4.704 4.752-4.704 12.439 0 17.179 4.704 4.752 12.319 4.752 17.011 0l82.997-84.2c4.644-4.68 4.692-12.512.012-17.18z"/></svg>