<svg height="14" viewBox="0 0 14 14" width="14" xmlns="http://www.w3.org/2000/svg"><path d="m13.992 5.48a6.347 6.347 0 0 0 -5.983-5.48 1.056 1.056 0 0 0 -.8.34 1.114 1.114 0 0 0 -.288.821l.309 4.82a1.144 1.144 0 0 0 1.117 1.078h.073l4.6-.321a1.02 1.02 0 0 0 .718-.365 1.116 1.116 0 0 0 .262-.79v-.1zm-5.645.42-.307-4.732a5.217 5.217 0 0 1 4.847 4.421zm2.013 3.3a.562.562 0 0 1 .687-.4.555.555 0 0 1 .346.267.6.6 0 0 1 .059.446 6.045 6.045 0 0 1 -2.816 3.728 5.587 5.587 0 0 1 -5.477.087 6.081 6.081 0 0 1 -3.114-4.716 3.969 3.969 0 0 1 -.045-.712 6.038 6.038 0 0 1 4.64-5.975.565.565 0 0 1 .663.462.589.589 0 0 1 -.442.693 4.889 4.889 0 0 0 -3.736 4.839 3.251 3.251 0 0 0 .031.545 4.806 4.806 0 0 0 4.312 4.317 4.724 4.724 0 0 0 4.891-3.581z" fill="#001b34" opacity=".6"/></svg>