<svg height="16" viewBox="0 0 14 16" width="14" xmlns="http://www.w3.org/2000/svg"><path d="m13.445 7.447a3.185 3.185 0 0 1 .555 1.641l-.022.148a3.252 3.252 0 0 1 -.774 2.2 4.069 4.069 0 0 1 -2.572 1.232 34.465 34.465 0 0 1 -7.306 0 4.022 4.022 0 0 1 -2.526-1.229 3.207 3.207 0 0 1 -.8-2.19v-.1a3.3 3.3 0 0 1 .6-1.68l.059-.069a3.035 3.035 0 0 0 .73-1.41v-1.45a.631.631 0 0 1 .653-.381.619.619 0 0 1 .553.507v1.45a.353.353 0 0 1 0 .077 4.166 4.166 0 0 1 -1.009 1.958 1.982 1.982 0 0 0 -.321 1v.155a2.022 2.022 0 0 0 .482 1.373 2.768 2.768 0 0 0 1.71.788 33.927 33.927 0 0 0 7.073 0 2.773 2.773 0 0 0 1.746-.824 2 2 0 0 0 .46-1.33v-.162a2.056 2.056 0 0 0 -.314-1.007 4.175 4.175 0 0 1 -1.067-1.957.358.358 0 0 1 0-.077v-1.457c-.212-2.126-2.411-3.442-4.325-3.442a4.853 4.853 0 0 0 -2.323.584.649.649 0 0 1 -.639 0 .595.595 0 0 1 .025-1.056 6.108 6.108 0 0 1 2.878-.739c2.529 0 5.363 1.732 5.685 4.512v1.45a2.973 2.973 0 0 0 .731 1.408.538.538 0 0 1 .058.077zm-6.238 7.3a1.641 1.641 0 0 0 1.072-.624h.007a.647.647 0 0 1 .888-.081.592.592 0 0 1 .084.855 2.926 2.926 0 0 1 -4.581 0 .592.592 0 0 1 .084-.855.647.647 0 0 1 .888.081 1.661 1.661 0 0 0 1.558.624z" fill="#00162a" opacity=".6"/></svg>