<svg height="8.88" viewBox="0 0 15.001 8.88" width="15.001" xmlns="http://www.w3.org/2000/svg"><g fill="#a4cdff"><path d="m10.015 3.331c0-.032 0-.064 0-.1a2.316 2.316 0 0 0 -2.354-2.268 2.419 2.419 0 0 0 -1.143.285 2.368 2.368 0 0 0 -2.104-1.248 2.316 2.316 0 0 0 -2.359 2.271 2.185 2.185 0 0 0 .033.363 1.635 1.635 0 0 0 -.279-.026 1.924 1.924 0 0 0 -1.809 2.022 1.924 1.924 0 0 0 1.809 2.022h8.047a1.7 1.7 0 0 0 1.728-1.664 1.689 1.689 0 0 0 -1.569-1.657z" transform="translate(3.416 2.228)"/><path d="m3.177 7.831a1.932 1.932 0 0 1 -1.162.39 2.074 2.074 0 0 1 -2.015-2.129 2.1 2.1 0 0 1 1.694-2.1c-.007-.083-.012-.167-.012-.252a2.742 2.742 0 0 1 2.662-2.814 2.539 2.539 0 0 1 1.378.41 3.043 3.043 0 0 1 2.494-1.336 3.159 3.159 0 0 1 3.061 2.754q-.1-.007-.2-.007a2.841 2.841 0 0 0 -.985.176 2.786 2.786 0 0 0 -2.262-1.139 2.755 2.755 0 0 0 -2.777 2.616 2.383 2.383 0 0 0 -2.053 2.458 2.681 2.681 0 0 0 .181.973z"/></g></svg>