<svg height="30" viewBox="0 0 30 30" width="30" xmlns="http://www.w3.org/2000/svg"><rect fill="#19e9aa" height="30" rx="5" width="30"/><g fill="#fff"><path d="m.405 2.94h2.61a1.252 1.252 0 0 0 -.195-.24l-2.577-2.51a1.587 1.587 0 0 0 -.243-.19v2.529a.4.4 0 0 0 .405.411z" transform="translate(18.189 8.221)"/><path d="m.294.063c-.016-.031-.048-.063-.146-.063s-.113.032-.113.047a1.986 1.986 0 0 0 .243 1.233c.146-.664.13-1.059.016-1.217z" transform="translate(14.508 13.532)"/><path d="m9.595 4.22a1.469 1.469 0 0 1 -1.495-1.454v-2.766h-6.658a1.439 1.439 0 0 0 -1.021.411 1.368 1.368 0 0 0 -.421 1v12.182a1.428 1.428 0 0 0 1.442 1.407h9.546a1.428 1.428 0 0 0 1.442-1.407v-9.373zm.049 5.832a1.221 1.221 0 0 1 -.844.348 2.763 2.763 0 0 1 -1.588-.727c-.324.063-.681.158-1.1.269-.357.095-.665.205-.94.3-.486.854-1.118 1.723-1.718 1.865a.832.832 0 0 1 -.194.032.649.649 0 0 1 -.438-.158.677.677 0 0 1 -.259-.664c.13-.648 1.2-1.2 2.172-1.581.13-.237.243-.49.357-.743.194-.474.357-.9.47-1.264a3.244 3.244 0 0 1 -.567-2.387.735.735 0 0 1 .7-.427.748.748 0 0 1 .665.332c.292.411.243 1.217-.113 2.418a4.409 4.409 0 0 0 .5.7 8.087 8.087 0 0 0 .665.632c1.3-.221 2.156-.126 2.415.285a.662.662 0 0 1 -.183.771z" transform="translate(9 8)"/><path d="m.405 0c-.097.253-.194.522-.305.806-.035.079-.068.142-.1.221.146-.047.259-.079.373-.11.243-.063.486-.127.697-.19a4.255 4.255 0 0 1 -.37-.379 4.292 4.292 0 0 1 -.295-.348z" transform="translate(14.559 16.425)"/><path d="m0 .774c.049.08.065.08.113.08a2.142 2.142 0 0 0 .876-.854c-.649.316-.957.616-.989.774z" transform="translate(12.16 18.669)"/><path d="m0 .039a1.557 1.557 0 0 0 .729.253.379.379 0 0 0 .389-.159c.082-.126-.34-.173-1.118-.094z" transform="translate(17.087 17.477)"/></g></svg>