<svg height="30" viewBox="0 0 30 30" width="30" xmlns="http://www.w3.org/2000/svg"><rect fill="#ff43ca" height="30" rx="5" width="30"/><g fill="#fff"><path d="m.865.232a.718.718 0 0 0 -.31-.179 1.409 1.409 0 0 0 -.406-.053h-.149v2.21h.149a1.3 1.3 0 0 0 .406-.058.771.771 0 0 0 .31-.189.907.907 0 0 0 .2-.345 1.671 1.671 0 0 0 .071-.529 1.625 1.625 0 0 0 -.07-.52.847.847 0 0 0 -.201-.337z" transform="translate(16.408 15.022)"/><path d="m8.711 3.3-.119-3.3h-8.592v13.648h11.742v-10.313zm-3.25 5.905h-.516a.154.154 0 0 1 -.139-.088l-.306-.623-.126-.275c-.041-.09-.086-.189-.136-.3h-.021c-.04.106-.078.206-.118.3s-.078.182-.118.275l-.28.623a.166.166 0 0 1 -.141.091h-.487a.166.166 0 0 1 -.138-.23l.8-1.492a.156.156 0 0 0 0-.148l-.741-1.39a.156.156 0 0 1 .138-.229h.517a.166.166 0 0 1 .141.09l.262.567c.04.083.078.166.118.26s.083.191.134.3h.022c.038-.111.076-.212.114-.3s.073-.177.109-.26l.237-.562a.166.166 0 0 1 .144-.094h.479a.156.156 0 0 1 .138.227l-.747 1.43a.153.153 0 0 0 0 .146l.794 1.449a.154.154 0 0 1 -.134.234zm3.125-.978a1.441 1.441 0 0 1 -.346.547 1.422 1.422 0 0 1 -.537.332 2.138 2.138 0 0 1 -.7.108h-.87a.156.156 0 0 1 -.156-.156v-3.18a.156.156 0 0 1 .156-.156h.829a2.429 2.429 0 0 1 .721.1 1.456 1.456 0 0 1 .549.31 1.373 1.373 0 0 1 .351.537 2.167 2.167 0 0 1 .124.774 2.215 2.215 0 0 1 -.124.782z" transform="translate(9.643 8.663)"/><path d="m12.634 3.372-2.666-2.916a1.4 1.4 0 0 0 -1.033-.456h-7.535a1.4 1.4 0 0 0 -1.4 1.4v12.121a1.4 1.4 0 0 0 1.4 1.4h10.2a1.4 1.4 0 0 0 1.4-1.4v-9.211a1.392 1.392 0 0 0 -.366-.938zm-.884.416h-1.717a.467.467 0 0 1 -.466-.472v-1.916zm-.149 10.2h-10.201a.467.467 0 0 1 -.467-.467v-12.121a.467.467 0 0 1 .467-.468h7.234v2.383a1.4 1.4 0 0 0 1.4 1.4h2.036v8.806a.469.469 0 0 1 -.467.467z" transform="translate(9 8)"/></g></svg>